<?xml version="1.0" encoding="UTF-8" standalone="no"?>
<svg
   xmlns:dc="http://purl.org/dc/elements/1.1/"
   xmlns:cc="http://creativecommons.org/ns#"
   xmlns:rdf="http://www.w3.org/1999/02/22-rdf-syntax-ns#"
   xmlns:svg="http://www.w3.org/2000/svg"
   xmlns="http://www.w3.org/2000/svg"
   xmlns:sodipodi="http://sodipodi.sourceforge.net/DTD/sodipodi-0.dtd"
   xmlns:inkscape="http://www.inkscape.org/namespaces/inkscape"
   version="1.1"
   id="svg4574"
   height="127"
   width="127"
   sodipodi:docname="icon.svg"
   inkscape:version="0.92.3 (5aff6ba, 2018-11-25)">
  <sodipodi:namedview
     pagecolor="#ffffff"
     bordercolor="#666666"
     borderopacity="1"
     objecttolerance="10"
     gridtolerance="10"
     guidetolerance="10"
     inkscape:pageopacity="0"
     inkscape:pageshadow="2"
     inkscape:window-width="1552"
     inkscape:window-height="1021"
     id="namedview18"
     showgrid="false"
     inkscape:zoom="1.8582677"
     inkscape:cx="71.841102"
     inkscape:cy="63.5"
     inkscape:window-x="67"
     inkscape:window-y="27"
     inkscape:window-maximized="0"
     inkscape:current-layer="svg4574" />
  <defs
     id="defs4576" />
  <metadata
     id="metadata4579">
    <rdf:RDF>
      <cc:Work
         rdf:about="">
        <dc:format>image/svg+xml</dc:format>
        <dc:type
           rdf:resource="http://purl.org/dc/dcmitype/StillImage" />
        <dc:title />
      </cc:Work>
    </rdf:RDF>
  </metadata>
  <rect
     id="rect3724"
     width="128.61441"
     height="128.07628"
     x="-1.0762712"
     y="-0.53813559"
     style="fill:#39b2ae;fill-opacity:1" />
  <g
     transform="translate(-311.55832,-418.28181)"
     id="layer1">
    <g
       transform="matrix(0.95,0,0,0.95,18.749999,0.618109)"
       id="g3733">
      <path
         id="path434"
         style="fill:#ffffff;fill-opacity:1;fill-rule:nonzero;stroke:none"
         d="m 327.00962,531.59056 c -0.085,-1.84875 -0.19125,-4.1475 -0.17,-6.0225 h -0.0638 c -0.4675,1.875 -1.0625,3.77 -1.7,5.57625 l -2.0825,6.29875 h -2.01875 l -1.91125,-6.21375 c -0.5525,-1.8275 -1.0625,-3.78625 -1.445,-5.66125 h -0.0425 c -0.0638,1.875 -0.14875,4.1525 -0.255,6.1075 l -0.31875,5.7675 h -2.44375 l 0.95625,-14.375 h 3.4425 l 1.86875,5.705 c 0.51,1.67875 0.95625,3.67 1.3175,4.92 h 0.0637 c 0.3825,-1.25 0.87125,-3.2625 1.42375,-4.94 l 1.97625,-5.685 h 3.4 l 0.82875,14.375 h -2.55 l -0.27625,-5.8525 z" />
      <path
         id="path438"
         style="fill:#ffffff;fill-opacity:1;fill-rule:nonzero;stroke:none"
         d="m 334.4715,532.39393 c 0,1.9975 0.9775,3.50625 2.57125,3.50625 1.4875,0 2.52875,-1.46625 2.52875,-3.54875 0,-1.615 -0.7225,-3.46375 -2.5075,-3.46375 -1.84875,0 -2.5925,1.785 -2.5925,3.50625 m 7.79875,-0.10625 c 0,3.80375 -2.6775,5.50375 -5.3125,5.50375 -2.9325,0 -5.185,-2.01875 -5.185,-5.33375 0,-3.4 2.23125,-5.48125 5.355,-5.48125 3.08125,0 5.1425,2.16625 5.1425,5.31125" />
      <path
         id="path442"
         style="fill:#ffffff;fill-opacity:1;fill-rule:nonzero;stroke:none"
         d="m 344.19162,530.29031 c 0,-1.19 0.16375,-2.2225 0.1,-2.8475 h 2.29375 l 0.1275,1.25 h 0.0637 c 0.44625,-0.625 1.4825,-1.75125 3.20375,-1.75125 1.80625,0 3.58625,1.2025 3.58625,4.475 v 6.02625 h -2.5 v -5.72875 c 0,-1.4875 -0.51875,-2.61375 -1.9425,-2.61375 -1.04125,0 -1.595,0.74375 -1.87125,1.53 -0.085,0.23375 0.0638,0.5525 0.0638,0.85 v 5.9625 h -3.125 z" />
      <path
         id="path446"
         style="fill:#ffffff;fill-opacity:1;fill-rule:nonzero;stroke:none"
         d="m 363.56662,531.52256 c 0,-0.2125 -0.0888,-0.4675 -0.13125,-0.68 -0.23375,-1.02 -1.095,-1.84875 -2.285,-1.84875 -1.67875,0 -2.63125,1.4875 -2.63125,3.42125 0,1.89125 0.92625,3.2725 2.58375,3.2725 1.0625,0 2.06125,-0.7225 2.31625,-1.84875 0.0637,-0.23375 0.1475,-0.48875 0.1475,-0.765 z m 2.5,-9.08 v 12.20375 c 0,1.0625 0.0213,2.17125 0.0638,2.79625 h -2.33625 l -0.10625,-1.25 h -0.0437 c -0.615,0.625 -1.86875,1.73375 -3.3775,1.73375 -2.465,0 -4.42,-2.17125 -4.42,-5.35875 -0.0212,-3.4625 2.14625,-5.69125 4.6325,-5.69125 1.42375,0 2.44375,0.56625 2.91125,1.19125 h 0.17625 v -5.625 h 2.5 z" />
      <path
         id="path450"
         style="fill:#ffffff;fill-opacity:1;fill-rule:nonzero;stroke:none"
         d="m 370.85087,532.39393 c 0,1.9975 0.9775,3.50625 2.57125,3.50625 1.4875,0 2.52875,-1.46625 2.52875,-3.54875 0,-1.615 -0.7225,-3.46375 -2.5075,-3.46375 -1.84875,0 -2.5925,1.785 -2.5925,3.50625 m 7.79875,-0.10625 c 0,3.80375 -2.6775,5.50375 -5.3125,5.50375 -2.9325,0 -5.185,-2.01875 -5.185,-5.33375 0,-3.4 2.23125,-5.48125 5.355,-5.48125 3.08125,0 5.1425,2.16625 5.1425,5.31125" />
      <path
         id="path454"
         style="fill:#ffffff;fill-opacity:1;fill-rule:nonzero;stroke:none"
         d="m 383.56662,530.09931 c 0,0.085 0.7275,0.10625 1.25875,0.10625 1.955,0 3.1375,-0.95625 3.1375,-2.635 0,-1.59375 -1.09375,-2.44375 -2.9,-2.44375 -0.7225,0 -1.49625,0.0638 -1.49625,0.1275 z m -2.5,-6.6725 c 0.625,-0.17 2.16875,-0.29625 3.9325,-0.29625 1.9125,0 3.28375,0.40375 4.1975,1.1675 0.85,0.70125 1.38625,1.8275 1.38625,3.16625 0,1.36 -0.4325,2.48625 -1.24,3.25125 -1.04,1.04125 -2.665,1.53 -4.51375,1.53 -0.48875,0 -1.2625,-0.0213 -1.2625,-0.085 v 5.2825 h -2.5 z" />
      <path
         d="m 392.31662,522.44256 h 2.5 v 15 h -2.5 z"
         style="fill:#ffffff;fill-opacity:1;fill-rule:nonzero;stroke:none"
         id="path456" />
      <path
         id="path460"
         style="fill:#ffffff;fill-opacity:1;fill-rule:nonzero;stroke:none"
         d="m 403.56662,532.50006 c -1.875,-0.0425 -3.7075,0.36125 -3.7075,1.93375 0,1.02 0.61125,1.4875 1.43875,1.4875 1.04125,0 1.87875,-0.68 2.1125,-1.42375 0.0638,-0.19125 0.15625,-0.40375 0.15625,-0.57375 z m 0.14875,4.9425 -0.17,-1.25 h -0.0637 c -0.6375,1.25 -1.72125,1.49 -3.06,1.49 -2.0825,0 -3.12375,-1.455 -3.12375,-3.0275 0,-2.6125 1.89375,-3.87625 6.26875,-3.855 v -0.17 c 0,-0.68 -0.40375,-1.80625 -2.23125,-1.80625 -1.02,0 -2.14625,0.31875 -2.8475,0.765 l -0.54125,-1.69875 c 0.765,-0.4675 2.15875,-0.91375 3.795,-0.91375 3.31375,0 4.325,2.1025 4.325,4.355 v 3.74 c 0,0.935 -0.0987,1.74625 0.007,2.37125 h -2.35875 z" />
      <path
         id="path464"
         style="fill:#ffffff;fill-opacity:1;fill-rule:nonzero;stroke:none"
         d="m 409.86512,527.44306 1.87,5.51375 c 0.2125,0.6375 0.425,1.36125 0.57375,1.98625 h 0.0637 c 0.17,-0.625 0.36125,-1.3275 0.5525,-2.0075 l 1.615,-5.4925 h 2.80375 l -2.59125,6.9375 c -1.42375,3.8675 -2.38,5.53 -3.6125,6.5925 -1.02,0.91375 -2.0825,1.22375 -2.74125,1.30875 l -0.595,-2.22375 c 0.44625,-0.10625 0.99875,-0.3475 1.53,-0.73 0.48875,-0.31875 1.0625,-0.93875 1.42375,-1.64 0.10625,-0.19125 0.17,-0.34125 0.17,-0.46875 0,-0.10625 -0.0213,-0.14 -0.14875,-0.395 l -3.7825,-9.38125 h 2.86875 z" />
      <path
         id="path468"
         style="fill:#ffffff;fill-opacity:1;fill-rule:nonzero;stroke:none"
         d="m 424.95462,531.19306 c 0.0213,-0.625 -0.40375,-2.52875 -2.14625,-2.52875 -1.615,0 -2.29375,1.27875 -2.4,2.52875 z m -4.54625,1.875 c 0.0637,1.875 1.52875,2.70125 3.18625,2.70125 1.21125,0 2.0825,-0.1575 2.86875,-0.455 l 0.3825,1.8125 c -0.8925,0.36 -2.125,0.64 -3.6125,0.64 -3.35625,0 -5.3325,-2.06 -5.3325,-5.22625 0,-2.8675 1.74125,-5.565 5.05625,-5.565 3.3575,0 4.4625,2.7375 4.4625,5.01125 0,0.48875 -0.0425,1.08125 -0.085,1.08125 z" />
      <path
         id="path472"
         style="fill:#ffffff;fill-opacity:1;fill-rule:nonzero;stroke:none"
         d="m 429.81662,530.54543 c 0,-1.4025 -0.295,-2.4775 -0.35875,-3.1025 h 2.27375 l 0.085,1.875 h 0.085 c 0.51,-1.875 1.77,-2.27625 2.875,-2.27625 0.255,0 0.665,-0.045 0.665,-0.003 v 2.465 c 0,-0.0425 -0.495,-0.085 -0.81375,-0.085 -1.25375,0 -2.0475,0.8075 -2.28125,1.97625 -0.0438,0.23375 -0.03,0.51 -0.03,0.8075 v 5.24 h -2.5 v -6.8975 z" />
    </g>
  </g>
</svg>
